<?xml version="1.0" standalone="no"?>
<!DOCTYPE svg PUBLIC "-//W3C//DTD SVG 20010904//EN"
 "http://www.w3.org/TR/2001/REC-SVG-20010904/DTD/svg10.dtd">
<svg version="1.0" xmlns="http://www.w3.org/2000/svg"
 width="711.000000pt" height="711.000000pt" viewBox="0 0 711.000000 711.000000"
 preserveAspectRatio="xMidYMid meet">
<metadata>
Created by potrace 1.14, written by Peter Selinger 2001-2017
</metadata>
<g transform="translate(0.000000,711.000000) scale(0.100000,-0.100000)"
fill="#000000" stroke="none">
<path d="M730 6803 c-365 -43 -660 -327 -720 -695 -14 -87 -14 -5009 0 -5096
55 -334 294 -594 627 -680 64 -16 239 -17 2918 -17 l2850 0 85 23 c289 77 508
294 592 587 l23 80 0 2560 0 2560 -28 90 c-89 282 -298 487 -582 567 l-80 23
-2825 1 c-1554 1 -2841 -1 -2860 -3z m5710 -189 c119 -28 205 -78 300 -173 97
-98 141 -171 170 -287 20 -76 20 -120 20 -2594 0 -2474 0 -2518 -20 -2594 -29
-116 -73 -189 -170 -287 -66 -67 -102 -94 -160 -122 -150 -72 102 -67 -3025
-67 -3130 0 -2876 -5 -3025 68 -57 27 -96 57 -160 122 -95 95 -137 165 -169
280 -21 75 -21 77 -21 2600 0 2523 0 2525 21 2600 32 115 74 185 169 280 64
65 103 95 160 123 145 71 -103 65 3020 66 2501 1 2832 -1 2890 -15z"/>
<path d="M725 6511 c-204 -58 -374 -234 -420 -434 -13 -58 -15 -350 -13 -2539
l3 -2473 24 -64 c66 -177 194 -299 391 -375 l55 -21 2755 -3 c3051 -3 2822 -8
2966 62 138 66 250 191 305 337 l24 64 3 2478 c2 2758 8 2529 -66 2672 -49 96
-155 201 -248 248 -145 73 113 67 -2955 66 -2587 0 -2768 -2 -2824 -18z m5613
-76 c193 -46 347 -202 388 -394 11 -56 14 -446 14 -2477 0 -2372 0 -2412 -20
-2488 -36 -143 -125 -259 -249 -325 -123 -65 99 -61 -2917 -61 -2489 0 -2756
2 -2805 16 -187 55 -325 202 -364 389 -22 103 -22 4844 -1 4946 41 190 194
347 384 393 89 22 5478 22 5570 1z"/>
<path d="M5905 5904 c-98 -139 -287 -407 -289 -411 -1 -1 -90 12 -199 29 -109
17 -199 29 -201 27 -2 -2 -57 -82 -122 -178 l-118 -174 44 -38 43 -37 -148
-75 c-99 -49 -144 -76 -135 -82 8 -5 67 19 160 65 l148 73 42 -33 42 -33 -43
-36 c-135 -111 -274 -235 -274 -244 0 -28 32 -7 178 118 87 74 161 135 165
135 3 0 58 -25 123 -56 l118 -57 6 -41 c2 -23 9 -97 15 -165 5 -68 12 -126 15
-129 14 -14 15 18 4 157 -6 83 -9 154 -6 157 3 3 37 -11 76 -30 39 -20 73 -36
75 -36 3 0 68 93 146 207 l140 207 -23 25 c-13 14 -67 74 -121 134 l-98 107
171 267 c95 146 170 271 168 276 -2 6 -48 -52 -102 -129z"/>
<path d="M1880 5226 c0 -9 11 -18 25 -21 14 -3 36 -7 50 -10 14 -3 35 -15 47
-27 17 -17 20 -28 15 -72 -6 -51 -248 -900 -288 -1007 -28 -77 -70 -116 -139
-129 -30 -6 -57 -16 -62 -23 -6 -9 61 -13 309 -15 247 -2 318 1 324 10 10 16
-13 26 -59 27 -23 1 -43 10 -63 31 -28 27 -30 34 -24 75 4 25 37 147 74 272
l66 227 34 0 34 0 72 -250 c40 -137 82 -282 94 -321 l22 -73 199 0 c110 0 200
-3 200 -6 0 -26 -148 -511 -169 -553 -30 -63 -67 -89 -138 -99 -34 -5 -49 -12
-51 -25 -3 -16 16 -17 315 -15 293 3 318 4 321 21 3 13 -3 17 -28 17 -43 0
-96 24 -110 51 -18 32 -10 69 65 327 l68 232 33 0 c32 0 34 -2 50 -57 9 -32
52 -177 94 -323 l77 -265 196 -3 c109 -1 197 -5 197 -8 0 -26 -148 -511 -169
-553 -30 -63 -67 -89 -138 -99 -34 -5 -49 -12 -51 -25 -3 -16 16 -17 315 -15
282 3 318 5 321 19 2 13 -9 17 -50 22 -71 8 -102 42 -96 101 3 23 36 146 73
274 l68 232 33 0 c32 0 34 -3 49 -52 8 -29 50 -174 93 -323 l79 -270 187 -3
187 -2 -152 -181 c-167 -198 -231 -260 -289 -279 -22 -7 -41 -19 -44 -26 -4
-12 30 -14 194 -14 171 0 200 2 200 15 0 9 -9 15 -22 15 -13 0 -38 9 -55 20
-63 38 -46 82 96 255 l94 115 206 0 206 0 -7 -122 c-11 -201 -34 -250 -126
-263 -29 -4 -53 -13 -56 -21 -5 -12 36 -14 281 -12 291 3 341 10 253 37 -81
24 -81 25 -50 751 25 588 25 560 1 560 -12 0 -131 -134 -356 -402 -337 -403
-338 -403 -376 -402 -52 1 -87 27 -114 87 -35 77 -168 528 -158 537 4 4 38 17
74 29 169 55 272 180 272 330 1 124 -61 215 -179 262 -58 23 -68 24 -426 27
-323 3 -368 1 -368 -12 0 -10 15 -17 45 -22 66 -9 90 -32 90 -86 0 -23 -27
-137 -60 -252 l-60 -208 -38 5 c-55 8 -86 32 -112 90 -33 71 -168 525 -160
537 3 6 11 10 16 10 5 0 45 14 89 31 153 59 243 179 243 322 0 124 -60 210
-180 258 -57 23 -67 24 -424 27 -311 3 -367 1 -372 -11 -4 -11 7 -16 43 -21
72 -10 95 -33 93 -93 -1 -37 -103 -426 -119 -454 -7 -12 -97 11 -117 29 -11 9
-30 40 -43 68 -21 48 -167 525 -162 529 2 1 38 14 80 29 93 33 157 74 198 126
141 178 85 404 -116 471 -66 22 -86 23 -426 27 -318 3 -358 2 -358 -12z m600
-89 c58 -39 73 -82 68 -191 -3 -67 -10 -103 -27 -137 -56 -117 -148 -179 -278
-187 -70 -4 -75 -4 -70 14 38 130 140 477 149 503 l10 34 55 -6 c34 -4 69 -15
93 -30z m915 -690 c82 -46 107 -163 64 -303 -17 -56 -31 -77 -78 -124 -40 -40
-71 -62 -108 -74 -52 -17 -156 -26 -168 -15 -5 6 139 510 152 532 10 16 99 6
138 -16z m915 -699 c87 -44 113 -160 69 -304 -17 -56 -31 -77 -78 -124 -40
-40 -71 -62 -106 -73 -64 -21 -146 -30 -163 -19 -10 7 3 64 64 268 42 142 78
262 81 267 9 15 90 6 133 -15z m768 -1017 l-12 -211 -169 0 c-93 0 -167 4
-165 9 5 13 352 420 356 417 1 -2 -3 -98 -10 -215z"/>
<path d="M2040 1676 c0 -13 7 -26 15 -30 19 -7 19 -26 0 -26 -8 0 -29 -13 -47
-29 -32 -29 -33 -29 -14 -50 l19 -21 -69 -1 c-38 0 -139 -4 -224 -8 l-155 -6
-125 -64 c-149 -74 -181 -79 -216 -34 l-25 31 36 28 c24 18 52 29 85 32 39 3
49 9 54 26 3 11 2 23 -2 27 -4 3 -110 4 -235 1 -225 -5 -228 -5 -225 -26 2
-17 12 -22 53 -26 55 -6 115 -41 115 -68 0 -10 -7 -28 -16 -40 -8 -12 -14 -34
-12 -49 4 -37 36 -43 156 -33 109 10 159 27 276 94 43 25 101 50 128 55 57 13
148 14 165 3 23 -15 21 -102 -2 -102 -9 0 -19 -8 -22 -17 -9 -24 -23 -33 -55
-33 -27 0 -28 -2 -28 -49 l0 -49 133 -7 c72 -3 393 -5 712 -3 l580 3 11 25
c29 62 28 70 -9 70 -19 0 -49 3 -66 6 l-32 7 3 71 3 71 50 5 c42 4 50 8 50 25
0 16 -8 21 -42 23 -50 4 -56 19 -13 35 25 9 30 17 28 37 -2 20 -11 27 -40 34
-43 11 -47 20 -18 36 11 6 20 20 20 30 0 18 -7 20 -75 20 -69 0 -75 -2 -75
-21 0 -12 8 -23 20 -26 35 -9 24 -33 -15 -33 -33 0 -35 -2 -35 -34 0 -26 5
-36 20 -41 11 -3 20 -13 20 -21 0 -11 -22 -14 -114 -14 -107 0 -115 1 -140 25
-15 14 -40 32 -57 40 -17 9 -29 24 -29 35 0 10 -7 23 -16 28 -11 6 -13 11 -5
16 17 11 -5 46 -29 46 -24 0 -44 -32 -29 -47 8 -8 7 -13 0 -17 -6 -4 -11 -16
-11 -26 0 -10 -9 -22 -21 -25 -11 -4 -35 -20 -54 -36 -33 -29 -36 -30 -127
-27 -93 3 -93 3 -60 19 l33 16 -27 26 c-15 15 -37 27 -50 27 -30 0 -42 20 -21
35 10 7 17 22 17 34 0 19 -5 21 -60 21 -57 0 -60 -1 -60 -24z m-9 -216 c27
-15 24 -57 -9 -105 -23 -33 -35 -41 -65 -43 -31 -3 -38 0 -46 21 -5 13 -19 27
-30 30 -17 4 -21 13 -21 50 0 27 5 47 13 50 23 10 138 7 158 -3z m349 -22 c29
-31 36 -67 19 -97 -14 -24 -20 -26 -102 -29 l-87 -3 -20 33 c-22 37 -35 91
-25 107 3 7 44 11 100 11 85 0 96 -2 115 -22z m548 -55 l3 -73 -145 0 c-138 0
-146 1 -160 22 -24 33 -20 75 9 104 24 24 28 25 157 22 l133 -3 3 -72z"/>
</g>
</svg>
